<svg xmlns="http://www.w3.org/2000/svg" height="450" width="500" viewBox="0 0 500 450"><title>wp logo</title><path d="M427.94 2.965c-15.5 5.178-48.6 38.31-6.63 97.415 41.96 59.1 17.12 126.43 17.12 126.43l-36.57 124.54-92.1-281.04c0 .002 26-1.994 29.72-2.568s9.91-4.324 8.88-12.304c-1.03-7.982-6.75-9.135-12.19-8.847-2.73.145-34.83 2.632-66.73 2.63-31.7-.003-63.19-2.504-65.43-2.63-4.5-.26-11 .259-12.56 7.5-1.12 6.059 1.69 12.79 8.06 13.559 6.38.77 2.11.198 27.86 2.663 0 0 17.51 49.197 39.67 111.43l-56.09 170.83-92.4-282.26c0 .003 26-1.992 29.72-2.566s9.91-4.324 8.88-12.305c-1.03-7.982-6.75-9.135-12.19-8.846-2.72.144-34.84 2.632-66.73 2.629-31.7-.002-63.186-2.504-65.427-2.63-4.5-.258-10.999.26-12.561 7.5-1.125 6.059 1.687 12.79 8.061 13.559 6.374.77 2.103.198 27.857 2.664 0 0 122.95 345.4 129.47 363.92 6.51 18.53 33.51 23.34 41.19-.89 5.69-17.91 49.88-149.53 72.55-216.95 34.41 96.69 73.85 207.56 77.46 217.84 6.52 18.53 33.52 23.34 41.2-.89 7.69-24.23 51.18-149.3 88.48-261.3 33-102.06 2.39-189.43-58.57-169.09v.005z" fill="#fff" opacity=".05" fill-rule="evenodd"/></svg>